<?xml version="1.0" encoding="utf-8"?>
<!-- Generator: Adobe Illustrator 23.0.2, SVG Export Plug-In . SVG Version: 6.00 Build 0)  -->
<svg version="1.1" id="圖層_1" xmlns="http://www.w3.org/2000/svg" xmlns:xlink="http://www.w3.org/1999/xlink" x="0px" y="0px"
	 viewBox="0 0 1372.6 331.09" style="enable-background:new 0 0 1372.6 331.09;" xml:space="preserve">
<style type="text/css">
	.st0{fill:#E60012;}
	.st1{fill:#F6A700;}
	.st2{fill:#FCCF48;}
	.st3{fill:#FEDB70;}
</style>
<g>
	<g>
		<path class="st0" d="M309.14,10.43h-71.94c-1.54,0-2.33-1.54-2.33-2.72c0-4.6-3.48-7.71-8.13-7.71h-13.15
			c-4.63,0-8.13,3.11-8.13,7.71c0,1.18-0.78,2.72-2.3,2.72h-82.37c-1.96,0-2.74-1.54-2.74-2.72c0-4.6-3.45-7.71-8.11-7.71H96.78
			c-4.63,0-8.13,3.11-8.13,7.71c0,1.18-0.78,2.72-2.3,2.72H14.39c-8.11,0-14.33,6.2-14.33,14.33c0,8.1,6.22,14.33,14.33,14.33h71.97
			c1.52,0,2.3,1.52,2.3,2.66c0,4.29,3.5,7.37,7.71,7.37h13.93c4.29,0,7.74-3.09,7.74-7.37c0-1.15,0.78-2.66,2.33-2.66h82.79
			c1.52,0,2.3,1.52,2.3,2.66c0,4.29,3.5,7.37,7.79,7.37h13.88c4.63,0,7.74-3.09,7.74-7.37c0-1.15,0.78-2.66,2.33-2.66h71.94
			c8.52,0,14.69-6.22,14.69-14.33C323.83,16.63,317.66,10.43,309.14,10.43z"/>
		<path class="st0" d="M85.15,256.42c-10.01,0-18.53,25.54-21.64,34.82l-6.17,18.56c-2.72,7.74,3.09,15.47,11.21,15.47
			c9.65,0,18.56-6.17,21.67-15.47l6.14-18.56C98.75,283.51,93.28,256.42,85.15,256.42z"/>
		<path class="st0" d="M298.68,91.26c0-8.1-6.17-14.32-14.3-14.32h-98.21c-1.99,0-3.9-1.91-3.9-4.24c0-8.13-6.2-14.32-14.35-14.32
			h-0.73c-7.74,0-13.93,6.2-13.93,14.32c0,2.33-1.94,4.24-4.26,4.24H43.77c-15.82,0-27.84,12.42-27.84,27.87v61.91L0.06,316.76
			c-0.73,8.13,5.05,14.33,13.15,14.33c8.55,0,15.14-6.2,16.29-14.33l15.06-148.15v-54.92c0-4.24,3.87-8.1,8.13-8.1h231.69
			C292.51,105.59,298.68,99.42,298.68,91.26z"/>
		<path class="st0" d="M146.3,259.93c-8.52,0-14.72,26.69-13.93,34.77l1.54,11.24c0.76,8.89,8.52,15.48,17.41,15.48
			c8.13,0,14.72-7.37,13.51-15.48l-1.12-11.24C162.56,286.23,155.19,259.93,146.3,259.93z"/>
		<path class="st0" d="M299.07,292.03c-5.02-9.31-14.69-34.82-25.54-34.82c-7.74,0-13.15,27.87-9.67,34.82l8.13,16.62
			c5.07,9.67,14.74,15.84,25.15,15.84c8.13,0,13.54-8.49,10.04-15.84L299.07,292.03z"/>
		<path class="st0" d="M227.91,294.7c-2.33-8.86-10.85-34.77-20.13-34.77c-8.13,0-14.3,27.03-12.36,35.19l2.69,10.82
			c2.72,8.89,10.85,15.48,20.5,15.48c8.13,0,13.96-7.74,11.97-15.48L227.91,294.7z"/>
		<path class="st0" d="M298.29,157.04c0-8.11-6.2-14.3-14.3-14.3h-45.25c-2.69,0-5.41-2.74-5.41-5.44v-4.62
			c0-7.74-5.78-13.54-13.54-13.54c-7.74,0-13.91,5.81-13.91,13.54v4.62c0,2.69-2.35,5.44-5.05,5.44h-47.21
			c-2.66,0-5.38-2.74-5.38-5.44v-4.62c0-7.74-5.8-13.54-13.57-13.54c-7.68,0-13.88,5.81-13.88,13.54v4.62
			c0,2.69-2.74,5.44-5.44,5.44H70.83c-8.84,0-15.03,6.2-15.03,14.3c0,8.1,6.2,14.3,15.03,14.3h42.22c4.21,0,7.74,3.9,7.74,8.13
			v33.25c0,15.86,12.34,27.86,27.84,27.86h57.25c15.45,0,27.45-12,27.45-27.86v-33.25c0-4.24,3.87-8.13,8.1-8.13h42.56
			C292.09,171.33,298.29,165.14,298.29,157.04z"/>
	</g>
	<g>
		<g>
			<polygon class="st1" points="158.09,183.7 167.58,178.37 167.58,189.3 158.09,194.76 			"/>
			<polygon class="st2" points="158.09,183.7 158.09,194.76 148.65,189.3 148.65,178.37 			"/>
			<polygon class="st3" points="158.09,183.7 167.58,178.37 158.09,172.88 148.65,178.37 			"/>
		</g>
		<g>
			<polygon class="st1" points="158.09,205.61 167.58,200.22 167.58,211.15 158.09,216.58 			"/>
			<polygon class="st2" points="158.09,205.61 158.09,216.58 148.65,211.15 148.65,200.22 			"/>
			<polygon class="st3" points="158.09,205.61 167.58,200.22 158.09,194.76 148.65,200.22 			"/>
		</g>
		<g>
			<polygon class="st1" points="177.02,194.65 186.48,189.3 186.48,200.22 177.02,205.69 			"/>
			<polygon class="st2" points="177.02,194.65 177.02,205.69 167.58,200.22 167.58,189.3 			"/>
			<polygon class="st3" points="177.02,194.65 186.48,189.3 177.02,183.8 167.58,189.3 			"/>
		</g>
		<g>
			<polygon class="st1" points="195.97,183.65 205.46,178.26 205.46,189.19 195.97,194.65 			"/>
			<polygon class="st2" points="195.97,183.65 195.97,194.65 186.48,189.19 186.48,178.26 			"/>
			<polygon class="st3" points="195.97,183.65 205.46,178.26 195.97,172.8 186.48,178.26 			"/>
		</g>
		<g>
			<polygon class="st1" points="195.97,205.61 205.46,200.22 205.46,211.15 195.97,216.58 			"/>
			<polygon class="st2" points="195.97,205.61 195.97,216.58 186.48,211.15 186.48,200.22 			"/>
			<polygon class="st3" points="195.97,205.61 205.46,200.22 195.97,194.76 186.48,200.22 			"/>
		</g>
		<g>
			<polygon class="st1" points="177.02,172.8 186.48,167.39 186.48,178.37 177.02,183.8 			"/>
			<polygon class="st2" points="177.02,172.8 177.02,183.8 167.58,178.37 167.58,167.39 			"/>
			<polygon class="st3" points="177.02,172.8 186.48,167.39 177.02,161.95 167.58,167.39 			"/>
		</g>
		<g>
			<polygon class="st1" points="177.02,216.51 186.48,211.15 186.48,222.08 177.02,227.51 			"/>
			<polygon class="st2" points="177.02,216.51 177.02,227.51 167.58,222.08 167.58,211.15 			"/>
			<polygon class="st3" points="177.02,216.51 186.48,211.15 177.02,205.69 167.58,211.15 			"/>
		</g>
	</g>
	<g>
		<path class="st0" d="M757.31,180.62H607.23c-15.45,0-28.21,12.76-28.21,28.23v89.75c0,15.45,12.76,27.84,28.21,27.84h150.08
			c15.84,0,28.23-12.39,28.23-27.84v-89.75C785.54,193.37,773.15,180.62,757.31,180.62z"/>
		<path class="st0" d="M825.41,77.35H705.13c-4.26,0-7.76-3.5-7.76-7.34V49.12c0-4.29,3.5-7.74,7.76-8.16l69.22-3.45
			c8.47-0.78,15.48-7.74,15.48-16.26c0-8.53-7.01-15.06-15.48-14.69L594.89,17.38c-8.57,0.37-15.11,7.37-15.11,15.87
			c0,8.13,6.95,14.69,15.11,14.3l65.35-3.84c3.87-0.39,7.35,3.11,7.35,6.96v19.35c0,3.84-3.48,7.34-7.35,7.34H540.31
			c-8.49,0-15.45,6.95-15.45,15.11c0,8.47,6.96,15.06,15.45,15.06h81.64c2.3,0,3.11,3.08,1.13,4.24l-63.39,39.47
			c-6.61,3.87-3.5,14.69,4.23,14.69h3.11c18.17,0,36.36-5.41,51.84-15.11l42.53-27.42c2.72-1.55,6.2,0.39,6.2,3.48v22.43
			c0,8.1,6.56,15.08,15.08,15.08c8.13,0,14.69-6.98,14.69-15.08v-22.82c0-3.08,3.87-5.41,6.59-3.48l46.79,28.23
			c15.48,9.67,33.64,14.69,51.84,14.69h3.84c7.76,0,10.48-10.45,3.89-14.32l-68.07-40.21c-1.54-0.78-1.18-3.87,1.15-3.87h82.01
			c8.1,0,15.06-6.59,15.06-15.06C840.47,84.31,833.51,77.35,825.41,77.35z"/>
	</g>
	<g>
		<g>
			<polygon class="st1" points="652.3,235.88 667.49,227.25 667.49,244.79 652.3,253.55 			"/>
			<polygon class="st2" points="652.3,235.88 652.3,253.55 637.14,244.79 637.14,227.25 			"/>
			<polygon class="st3" points="652.3,235.88 667.49,227.25 652.3,218.5 637.14,227.25 			"/>
		</g>
		<g>
			<polygon class="st1" points="652.3,270.93 667.49,262.33 667.49,279.8 652.3,288.58 			"/>
			<polygon class="st2" points="652.3,270.93 652.3,288.58 637.14,279.8 637.14,262.33 			"/>
			<polygon class="st3" points="652.3,270.93 667.49,262.33 652.3,253.55 637.14,262.33 			"/>
		</g>
		<polygon class="st1" points="682.65,253.42 697.84,244.79 697.84,262.33 682.65,271.07 		"/>
		<polygon class="st2" points="682.65,253.42 682.65,271.07 667.49,262.33 667.49,244.79 		"/>
		<polygon class="st3" points="682.65,253.42 697.84,244.79 682.65,236.03 667.49,244.79 		"/>
		<g>
			<polygon class="st1" points="713,235.75 728.21,227.09 728.21,244.66 713,253.42 			"/>
			<polygon class="st2" points="713,235.75 713,253.42 697.84,244.66 697.84,227.09 			"/>
			<polygon class="st3" points="713,235.75 728.21,227.09 713,218.36 697.84,227.09 			"/>
		</g>
		<g>
			<polygon class="st1" points="713,270.93 728.21,262.33 728.21,279.8 713,288.58 			"/>
			<polygon class="st2" points="713,270.93 713,288.58 697.84,279.8 697.84,262.33 			"/>
			<polygon class="st3" points="713,270.93 728.21,262.33 713,253.55 697.84,262.33 			"/>
		</g>
		<g>
			<polygon class="st1" points="682.65,218.36 697.84,209.68 697.84,227.25 682.65,236.03 			"/>
			<polygon class="st2" points="682.65,218.36 682.65,236.03 667.49,227.25 667.49,209.68 			"/>
			<polygon class="st3" points="682.65,218.36 697.84,209.68 682.65,200.95 667.49,209.68 			"/>
		</g>
		<g>
			<polygon class="st1" points="682.65,288.48 697.84,279.8 697.84,297.36 682.65,306.09 			"/>
			<polygon class="st2" points="682.65,288.48 682.65,306.09 667.49,297.36 667.49,279.8 			"/>
			<polygon class="st3" points="682.65,288.48 697.84,279.8 682.65,271.07 667.49,279.8 			"/>
		</g>
	</g>
	<g>
		<path class="st0" d="M1173.02,104.02h-32.49c-4.24,0-7.32-3.48-7.32-7.32V61.88c0-4.66,3.08-8.16,7.32-8.89l14.72-2.72
			c9.25-1.93,15.87-10.06,15.87-19.35c0-8.52-7.74-14.69-15.87-13.17l-80.1,15.5c-9.25,1.54-15.82,9.67-15.82,18.95
			c0,8.52,7.68,15.08,15.82,13.17l18.59-3.5c3.87-0.78,7.34,2.3,7.34,6.17V96.7c0,3.84-3.48,7.32-7.34,7.32h-32.5
			c-8.91,0-16.23,7.37-16.23,16.26s7.32,16.26,16.23,16.26h32.5c3.87,0,7.34,3.09,7.34,7.32v36.76c0,3.86-3.48,7.37-7.34,7.37
			h-10.85c-15.45,0-28.21,12.39-28.21,27.84v69.62c0,15.47,12.76,28.24,28.21,28.24h68.86c15.48,0,28.23-12.76,28.23-28.24v-69.62
			c0-15.45-12.76-27.84-28.23-27.84h-11.21c-4.24,0-7.32-3.5-7.32-7.37v-36.76c0-4.24,3.08-7.32,7.32-7.32h32.49
			c8.86,0,16.26-7.37,16.26-16.26S1181.88,104.02,1173.02,104.02z"/>
		<path class="st0" d="M1356.75,59.94h-6.59c-3.09,0-5.8-2.33-5.8-5.8V31.71c0-8.11-6.59-15.09-15.06-15.09
			c-8.1,0-15.11,6.98-15.11,15.09V52.6c0,4.24-3.09,7.34-7.32,7.34h-44.13c-3.82,0-7.37-3.11-7.37-7.34V31.71
			c0-8.11-6.53-15.09-15.06-15.09c-8.11,0-14.69,6.98-14.69,15.09v22.43c0,3.48-2.72,5.8-6.17,5.8h-6.22
			c-8.48,0-15.49,7.35-15.49,15.84c0,8.89,7.01,15.87,15.49,15.87h6.22c3.45,0,6.17,2.69,6.17,6.2v187.23
			c0,15.45,12.34,28.23,27.87,28.23h62.64c15.48,0,28.23-12.78,28.23-28.23V97.85c0-3.5,2.72-6.2,5.8-6.2h6.59
			c8.89,0,15.84-6.98,15.84-15.87C1372.6,67.29,1365.64,59.94,1356.75,59.94z M1314.2,275.77c0,4.29-3.09,7.37-7.32,7.37h-44.13
			c-3.82,0-7.37-3.08-7.37-7.37v-77.74c0-4.24,3.56-7.74,7.37-7.74h44.13c4.24,0,7.32,3.51,7.32,7.74V275.77z M1314.2,149.69
			c0,4.26-3.09,7.35-7.32,7.35h-44.13c-3.82,0-7.37-3.09-7.37-7.35V99.42c0-4.28,3.56-7.76,7.37-7.76h44.13
			c4.24,0,7.32,3.48,7.32,7.76V149.69z"/>
	</g>
	<g>
		<g>
			<polygon class="st1" points="1093.41,235.99 1105.23,229.29 1105.23,242.96 1093.41,249.81 			"/>
			<polygon class="st2" points="1093.41,235.99 1093.41,249.81 1081.57,242.96 1081.57,229.29 			"/>
			<polygon class="st3" points="1093.41,235.99 1105.23,229.29 1093.41,222.44 1081.57,229.29 			"/>
		</g>
		<g>
			<polygon class="st1" points="1093.41,263.43 1105.23,256.64 1105.23,270.33 1093.41,277.16 			"/>
			<polygon class="st2" points="1093.41,263.43 1093.41,277.16 1081.57,270.33 1081.57,256.64 			"/>
			<polygon class="st3" points="1093.41,263.43 1105.23,256.64 1093.41,249.81 1081.57,256.64 			"/>
		</g>
		<g>
			<polygon class="st1" points="1117.1,249.71 1128.97,242.96 1128.97,256.64 1117.1,263.48 			"/>
			<polygon class="st2" points="1117.1,249.71 1117.1,263.48 1105.23,256.64 1105.23,242.96 			"/>
			<polygon class="st3" points="1117.1,249.71 1128.97,242.96 1117.1,236.09 1105.23,242.96 			"/>
		</g>
		<g>
			<polygon class="st1" points="1140.81,235.88 1152.7,229.19 1152.7,242.89 1140.81,249.71 			"/>
			<polygon class="st2" points="1140.81,235.88 1140.81,249.71 1128.97,242.89 1128.97,229.19 			"/>
			<polygon class="st3" points="1140.81,235.88 1152.7,229.19 1140.81,222.34 1128.97,229.19 			"/>
		</g>
		<g>
			<polygon class="st1" points="1140.81,263.43 1152.7,256.64 1152.7,270.33 1140.81,277.16 			"/>
			<polygon class="st2" points="1140.81,263.43 1140.81,277.16 1128.97,270.33 1128.97,256.64 			"/>
			<polygon class="st3" points="1140.81,263.43 1152.7,256.64 1140.81,249.81 1128.97,256.64 			"/>
		</g>
		<g>
			<polygon class="st1" points="1117.1,222.34 1128.97,215.57 1128.97,229.29 1117.1,236.09 			"/>
			<polygon class="st2" points="1117.1,222.34 1117.1,236.09 1105.23,229.29 1105.23,215.57 			"/>
			<polygon class="st3" points="1117.1,222.34 1128.97,215.57 1117.1,208.72 1105.23,215.57 			"/>
		</g>
		<g>
			<polygon class="st1" points="1117.1,277.08 1128.97,270.33 1128.97,284.03 1117.1,290.86 			"/>
			<polygon class="st2" points="1117.1,277.08 1117.1,290.86 1105.23,284.03 1105.23,270.33 			"/>
			<polygon class="st3" points="1117.1,277.08 1128.97,270.33 1117.1,263.48 1105.23,270.33 			"/>
		</g>
	</g>
</g>
</svg>
