<?xml version="1.0" encoding="utf-8"?>
<!-- Generator: Adobe Illustrator 23.0.2, SVG Export Plug-In . SVG Version: 6.00 Build 0)  -->
<svg version="1.1" id="圖層_1" xmlns="http://www.w3.org/2000/svg" xmlns:xlink="http://www.w3.org/1999/xlink" x="0px" y="0px"
	 viewBox="0 0 961.85 236.41" style="enable-background:new 0 0 961.85 236.41;" xml:space="preserve">
<style type="text/css">
	.st0{fill:#E60012;}
	.st1{fill:#F6A700;}
	.st2{fill:#FCCF48;}
	.st3{fill:#FEDB70;}
	.st4{fill-rule:evenodd;clip-rule:evenodd;fill:#E60012;stroke:#E60012;stroke-miterlimit:10;}
	.st5{fill:#E60012;stroke:#E60012;stroke-miterlimit:10;}
</style>
<g>
	<path class="st0" d="M518.15,53.49h-30.02c-0.64,0-0.97-0.64-0.97-1.13c0-1.92-1.45-3.22-3.39-3.22h-5.49
		c-1.93,0-3.39,1.3-3.39,3.22c0,0.49-0.33,1.13-0.96,1.13h-34.37c-0.82,0-1.14-0.64-1.14-1.13c0-1.92-1.44-3.22-3.38-3.22h-5.49
		c-1.93,0-3.39,1.3-3.39,3.22c0,0.49-0.33,1.13-0.96,1.13h-30.03c-3.38,0-5.98,2.58-5.98,5.98c0,3.38,2.6,5.98,5.98,5.98h30.03
		c0.63,0,0.96,0.63,0.96,1.11c0,1.79,1.46,3.08,3.22,3.08h5.81c1.79,0,3.23-1.29,3.23-3.08c0-0.48,0.33-1.11,0.97-1.11h34.54
		c0.63,0,0.96,0.63,0.96,1.11c0,1.79,1.46,3.08,3.25,3.08h5.79c1.93,0,3.23-1.29,3.23-3.08c0-0.48,0.33-1.11,0.97-1.11h30.02
		c3.56,0,6.13-2.6,6.13-5.98C524.28,56.07,521.71,53.49,518.15,53.49z"/>
	<path class="st0" d="M424.7,156.12c-4.18,0-7.73,10.66-9.03,14.53l-2.57,7.74c-1.13,3.23,1.29,6.46,4.68,6.46
		c4.03,0,7.74-2.57,9.04-6.46l2.56-7.74C430.38,167.42,428.1,156.12,424.7,156.12z"/>
	<path class="st0" d="M513.79,87.21c0-3.38-2.57-5.98-5.97-5.98h-40.98c-0.83,0-1.63-0.8-1.63-1.77c0-3.39-2.59-5.98-5.99-5.98
		h-0.31c-3.23,0-5.81,2.58-5.81,5.98c0,0.97-0.81,1.77-1.78,1.77h-43.9c-6.6,0-11.62,5.18-11.62,11.63v25.83l-6.62,62.6
		c-0.31,3.39,2.11,5.98,5.49,5.98c3.57,0,6.32-2.58,6.8-5.98l6.28-61.81V96.57c0-1.77,1.61-3.38,3.39-3.38h96.67
		C511.22,93.19,513.79,90.62,513.79,87.21z"/>
	<path class="st0" d="M450.21,157.59c-3.56,0-6.14,11.14-5.81,14.51l0.64,4.69c0.32,3.71,3.56,6.46,7.26,6.46
		c3.39,0,6.14-3.08,5.64-6.46l-0.47-4.69C457,168.56,453.92,157.59,450.21,157.59z"/>
	<path class="st0" d="M513.95,170.98c-2.09-3.88-6.13-14.53-10.66-14.53c-3.23,0-5.49,11.63-4.04,14.53l3.39,6.94
		c2.12,4.04,6.15,6.61,10.49,6.61c3.39,0,5.65-3.54,4.19-6.61L513.95,170.98z"/>
	<path class="st0" d="M484.27,172.09c-0.97-3.7-4.53-14.51-8.4-14.51c-3.39,0-5.97,11.28-5.16,14.68l1.12,4.51
		c1.13,3.71,4.53,6.46,8.55,6.46c3.39,0,5.82-3.23,5-6.46L484.27,172.09z"/>
	<path class="st0" d="M513.63,114.66c0-3.38-2.59-5.97-5.97-5.97h-18.88c-1.12,0-2.26-1.14-2.26-2.27v-1.93
		c0-3.23-2.41-5.65-5.65-5.65c-3.23,0-5.8,2.42-5.8,5.65v1.93c0,1.12-0.98,2.27-2.11,2.27h-19.7c-1.11,0-2.25-1.14-2.25-2.27v-1.93
		c0-3.23-2.42-5.65-5.66-5.65c-3.21,0-5.79,2.42-5.79,5.65v1.93c0,1.12-1.14,2.27-2.27,2.27h-18.58c-3.69,0-6.27,2.58-6.27,5.97
		c0,3.38,2.58,5.97,6.27,5.97h17.61c1.76,0,3.23,1.63,3.23,3.39v13.87c0,6.62,5.15,11.63,11.62,11.63h23.89
		c6.45,0,11.45-5.01,11.45-11.63v-13.87c0-1.77,1.61-3.39,3.38-3.39h17.76C511.04,120.62,513.63,118.04,513.63,114.66z"/>
</g>
<g>
	<g>
		<polygon class="st1" points="455.13,125.78 459.09,123.56 459.09,128.12 455.13,130.39 		"/>
		<polygon class="st2" points="455.13,125.78 455.13,130.39 451.2,128.12 451.2,123.56 		"/>
		<polygon class="st3" points="455.13,125.78 459.09,123.56 455.13,121.27 451.2,123.56 		"/>
	</g>
	<g>
		<polygon class="st1" points="455.13,134.92 459.09,132.67 459.09,137.23 455.13,139.5 		"/>
		<polygon class="st2" points="455.13,134.92 455.13,139.5 451.2,137.23 451.2,132.67 		"/>
		<polygon class="st3" points="455.13,134.92 459.09,132.67 455.13,130.39 451.2,132.67 		"/>
	</g>
	<g>
		<polygon class="st1" points="463.03,130.35 466.98,128.12 466.98,132.67 463.03,134.95 		"/>
		<polygon class="st2" points="463.03,130.35 463.03,134.95 459.09,132.67 459.09,128.12 		"/>
		<polygon class="st3" points="463.03,130.35 466.98,128.12 463.03,125.82 459.09,128.12 		"/>
	</g>
	<g>
		<polygon class="st1" points="470.94,125.76 474.9,123.51 474.9,128.07 470.94,130.35 		"/>
		<polygon class="st2" points="470.94,125.76 470.94,130.35 466.98,128.07 466.98,123.51 		"/>
		<polygon class="st3" points="470.94,125.76 474.9,123.51 470.94,121.23 466.98,123.51 		"/>
	</g>
	<g>
		<polygon class="st1" points="470.94,134.92 474.9,132.67 474.9,137.23 470.94,139.5 		"/>
		<polygon class="st2" points="470.94,134.92 470.94,139.5 466.98,137.23 466.98,132.67 		"/>
		<polygon class="st3" points="470.94,134.92 474.9,132.67 470.94,130.39 466.98,132.67 		"/>
	</g>
	<g>
		<polygon class="st1" points="463.03,121.23 466.98,118.98 466.98,123.56 463.03,125.82 		"/>
		<polygon class="st2" points="463.03,121.23 463.03,125.82 459.09,123.56 459.09,118.98 		"/>
		<polygon class="st3" points="463.03,121.23 466.98,118.98 463.03,116.71 459.09,118.98 		"/>
	</g>
	<g>
		<polygon class="st1" points="463.03,139.47 466.98,137.23 466.98,141.79 463.03,144.06 		"/>
		<polygon class="st2" points="463.03,139.47 463.03,144.06 459.09,141.79 459.09,137.23 		"/>
		<polygon class="st3" points="463.03,139.47 466.98,137.23 463.03,134.95 459.09,137.23 		"/>
	</g>
</g>
<g>
	<path class="st0" d="M705.14,124.5h-62.62c-6.45,0-11.77,5.32-11.77,11.78v37.44c0,6.45,5.32,11.62,11.77,11.62h62.62
		c6.61,0,11.78-5.17,11.78-11.62v-37.44C716.92,129.82,711.75,124.5,705.14,124.5z"/>
	<path class="st0" d="M733.55,81.41h-50.18c-1.78,0-3.24-1.46-3.24-3.06v-8.71c0-1.79,1.46-3.23,3.24-3.4l28.88-1.44
		c3.53-0.33,6.46-3.23,6.46-6.78c0-3.56-2.92-6.28-6.46-6.13l-74.88,4.51c-3.58,0.15-6.3,3.08-6.3,6.62c0,3.39,2.9,6.13,6.3,5.97
		l27.27-1.6c1.62-0.16,3.07,1.3,3.07,2.9v8.07c0,1.6-1.45,3.06-3.07,3.06H614.6c-3.54,0-6.45,2.9-6.45,6.3
		c0,3.53,2.9,6.28,6.45,6.28h34.06c0.96,0,1.3,1.29,0.47,1.77l-26.45,16.47c-2.76,1.61-1.46,6.13,1.77,6.13h1.3
		c7.58,0,15.17-2.26,21.63-6.3l17.75-11.44c1.13-0.65,2.59,0.16,2.59,1.45v9.36c0,3.38,2.74,6.29,6.29,6.29
		c3.39,0,6.13-2.91,6.13-6.29v-9.52c0-1.29,1.61-2.26,2.75-1.45l19.52,11.78c6.46,4.03,14.04,6.13,21.63,6.13h1.6
		c3.24,0,4.37-4.36,1.62-5.98l-28.4-16.78c-0.64-0.33-0.49-1.61,0.48-1.61h34.22c3.38,0,6.28-2.75,6.28-6.28
		C739.83,84.31,736.93,81.41,733.55,81.41z"/>
</g>
<g>
	<g>
		<polygon class="st1" points="661.33,147.55 667.66,143.95 667.66,151.27 661.33,154.92 		"/>
		<polygon class="st2" points="661.33,147.55 661.33,154.92 655,151.27 655,143.95 		"/>
		<polygon class="st3" points="661.33,147.55 667.66,143.95 661.33,140.3 655,143.95 		"/>
	</g>
	<g>
		<polygon class="st1" points="661.33,162.18 667.66,158.59 667.66,165.88 661.33,169.54 		"/>
		<polygon class="st2" points="661.33,162.18 661.33,169.54 655,165.88 655,158.59 		"/>
		<polygon class="st3" points="661.33,162.18 667.66,158.59 661.33,154.92 655,158.59 		"/>
	</g>
	<polygon class="st1" points="673.99,154.87 680.33,151.27 680.33,158.59 673.99,162.23 	"/>
	<polygon class="st2" points="673.99,154.87 673.99,162.23 667.66,158.59 667.66,151.27 	"/>
	<polygon class="st3" points="673.99,154.87 680.33,151.27 673.99,147.62 667.66,151.27 	"/>
	<g>
		<polygon class="st1" points="686.65,147.5 693,143.89 693,151.22 686.65,154.87 		"/>
		<polygon class="st2" points="686.65,147.5 686.65,154.87 680.33,151.22 680.33,143.89 		"/>
		<polygon class="st3" points="686.65,147.5 693,143.89 686.65,140.24 680.33,143.89 		"/>
	</g>
	<g>
		<polygon class="st1" points="686.65,162.18 693,158.59 693,165.88 686.65,169.54 		"/>
		<polygon class="st2" points="686.65,162.18 686.65,169.54 680.33,165.88 680.33,158.59 		"/>
		<polygon class="st3" points="686.65,162.18 693,158.59 686.65,154.92 680.33,158.59 		"/>
	</g>
	<g>
		<polygon class="st1" points="673.99,140.24 680.33,136.62 680.33,143.95 673.99,147.62 		"/>
		<polygon class="st2" points="673.99,140.24 673.99,147.62 667.66,143.95 667.66,136.62 		"/>
		<polygon class="st3" points="673.99,140.24 680.33,136.62 673.99,132.98 667.66,136.62 		"/>
	</g>
	<g>
		<polygon class="st1" points="673.99,169.5 680.33,165.88 680.33,173.2 673.99,176.85 		"/>
		<polygon class="st2" points="673.99,169.5 673.99,176.85 667.66,173.2 667.66,165.88 		"/>
		<polygon class="st3" points="673.99,169.5 680.33,165.88 673.99,162.23 667.66,165.88 		"/>
	</g>
</g>
<g>
	<path class="st0" d="M878.58,92.54h-13.56c-1.77,0-3.05-1.45-3.05-3.05V74.96c0-1.94,1.29-3.4,3.05-3.71l6.14-1.13
		c3.86-0.81,6.62-4.2,6.62-8.07c0-3.56-3.23-6.13-6.62-5.5l-33.42,6.47c-3.86,0.64-6.6,4.03-6.6,7.91c0,3.56,3.21,6.29,6.6,5.5
		l7.76-1.46c1.61-0.33,3.06,0.96,3.06,2.57v11.95c0,1.6-1.45,3.05-3.06,3.05h-13.56c-3.72,0-6.77,3.08-6.77,6.78
		c0,3.71,3.05,6.78,6.77,6.78h13.56c1.61,0,3.06,1.29,3.06,3.06v15.34c0,1.61-1.45,3.07-3.06,3.07h-4.53
		c-6.45,0-11.77,5.17-11.77,11.62v29.05c0,6.46,5.32,11.78,11.77,11.78h28.73c6.46,0,11.78-5.32,11.78-11.78v-29.05
		c0-6.45-5.32-11.62-11.78-11.62h-4.68c-1.77,0-3.05-1.46-3.05-3.07v-15.34c0-1.77,1.29-3.06,3.05-3.06h13.56
		c3.7,0,6.78-3.07,6.78-6.78C885.37,95.61,882.28,92.54,878.58,92.54z"/>
	<path class="st0" d="M955.24,74.15h-2.75c-1.29,0-2.42-0.97-2.42-2.42v-9.36c0-3.38-2.75-6.29-6.28-6.29c-3.38,0-6.3,2.91-6.3,6.29
		v8.71c0,1.77-1.29,3.06-3.05,3.06h-18.41c-1.59,0-3.08-1.3-3.08-3.06v-8.71c0-3.38-2.73-6.29-6.28-6.29
		c-3.38,0-6.13,2.91-6.13,6.29v9.36c0,1.45-1.13,2.42-2.57,2.42h-2.6c-3.54,0-6.46,3.07-6.46,6.61c0,3.71,2.92,6.62,6.46,6.62h2.6
		c1.44,0,2.57,1.12,2.57,2.58v78.12c0,6.45,5.15,11.78,11.63,11.78h26.13c6.46,0,11.78-5.33,11.78-11.78V89.96
		c0-1.46,1.13-2.58,2.42-2.58h2.75c3.71,0,6.61-2.91,6.61-6.62C961.85,77.21,958.95,74.15,955.24,74.15z M937.48,164.19
		c0,1.79-1.29,3.08-3.05,3.08h-18.41c-1.59,0-3.08-1.29-3.08-3.08v-32.44c0-1.77,1.48-3.23,3.08-3.23h18.41
		c1.77,0,3.05,1.46,3.05,3.23V164.19z M937.48,111.59c0,1.78-1.29,3.07-3.05,3.07h-18.41c-1.59,0-3.08-1.29-3.08-3.07V90.62
		c0-1.79,1.48-3.24,3.08-3.24h18.41c1.77,0,3.05,1.45,3.05,3.24V111.59z"/>
</g>
<g>
	<g>
		<polygon class="st1" points="845.37,147.6 850.3,144.8 850.3,150.51 845.37,153.36 		"/>
		<polygon class="st2" points="845.37,147.6 845.37,153.36 840.43,150.51 840.43,144.8 		"/>
		<polygon class="st3" points="845.37,147.6 850.3,144.8 845.37,141.94 840.43,144.8 		"/>
	</g>
	<g>
		<polygon class="st1" points="845.37,159.05 850.3,156.21 850.3,161.93 845.37,164.77 		"/>
		<polygon class="st2" points="845.37,159.05 845.37,164.77 840.43,161.93 840.43,156.21 		"/>
		<polygon class="st3" points="845.37,159.05 850.3,156.21 845.37,153.36 840.43,156.21 		"/>
	</g>
	<g>
		<polygon class="st1" points="855.25,153.32 860.2,150.51 860.2,156.21 855.25,159.07 		"/>
		<polygon class="st2" points="855.25,153.32 855.25,159.07 850.3,156.21 850.3,150.51 		"/>
		<polygon class="st3" points="855.25,153.32 860.2,150.51 855.25,147.64 850.3,150.51 		"/>
	</g>
	<g>
		<polygon class="st1" points="865.14,147.55 870.11,144.76 870.11,150.47 865.14,153.32 		"/>
		<polygon class="st2" points="865.14,147.55 865.14,153.32 860.2,150.47 860.2,144.76 		"/>
		<polygon class="st3" points="865.14,147.55 870.11,144.76 865.14,141.9 860.2,144.76 		"/>
	</g>
	<g>
		<polygon class="st1" points="865.14,159.05 870.11,156.21 870.11,161.93 865.14,164.77 		"/>
		<polygon class="st2" points="865.14,159.05 865.14,164.77 860.2,161.93 860.2,156.21 		"/>
		<polygon class="st3" points="865.14,159.05 870.11,156.21 865.14,153.36 860.2,156.21 		"/>
	</g>
	<g>
		<polygon class="st1" points="855.25,141.9 860.2,139.08 860.2,144.8 855.25,147.64 		"/>
		<polygon class="st2" points="855.25,141.9 855.25,147.64 850.3,144.8 850.3,139.08 		"/>
		<polygon class="st3" points="855.25,141.9 860.2,139.08 855.25,136.22 850.3,139.08 		"/>
	</g>
	<g>
		<polygon class="st1" points="855.25,164.74 860.2,161.93 860.2,167.64 855.25,170.49 		"/>
		<polygon class="st2" points="855.25,164.74 855.25,170.49 850.3,167.64 850.3,161.93 		"/>
		<polygon class="st3" points="855.25,164.74 860.2,161.93 855.25,159.07 850.3,161.93 		"/>
	</g>
</g>
<g>
	<g>
		<path class="st4" d="M152.97,171.92c-2.74,0.08-5.48,0.03-8.23,0.37c-2.51,0.31-5-0.07-7.5-0.12c-6.31-0.13-12.6-0.13-18.89,0.52
			c-3.2,0.33-6.44,0.16-9.67,0.02c-4.26-0.18-8.5-0.61-12.78-0.61c-1.07,0-2.07-0.3-2.96-0.73c-0.94-0.45-1.93-0.55-3.02-0.59
			c-5.74-0.22-11.47,0-17.22,0.15c-7.03,0.16-14.06-0.29-21.09,0.2c-4.12,0.28-8.23,0.64-12.35,0.67c-2.54,0-4.71-0.25-6.36-2.03
			c-1.5-1.65-3.95-1.93-6.35-1.65c-4.93,0.58-9.86,0.06-14.78,0.22c-2.45,0.09-4.22-0.96-5.47-2.63c-3.56-4.8-5.58-9.92-5.78-15.55
			c-0.15-4.48,0.39-8.89,1.2-13.3c0.14-0.77,0.33-1.54,0.28-2.3c-0.04-0.92,0.18-1.79,0.64-2.62c1.34-2.34,2.65-4.68,4.11-6.97
			c0.81-1.28,2.27-2.16,3.63-3.07c0.57-0.39,1.38-0.62,2.06-0.37c3.35,1.17,6.85,0.59,10.29,0.49c4.12-0.11,8.24-0.3,12.36-0.57
			c1.55-0.09,3.08-0.07,4.59,0.01c6.54,0.37,13.1-0.29,19.63,0.27c1.03,0.1,2.11-0.06,3.14-0.17c2.82-0.27,5.63,0.21,8.45-0.06
			c1.86-0.18,3.71-0.21,5.56-0.3c0.5-0.02,1-0.08,1.37-0.34c2.82-2.03,6.27-1.64,9.47-1.37c4.88,0.42,9.73,0.94,14.68,1.1
			c4.94,0.17,9.87,0.26,14.77,0.07c5.32-0.21,10.66-0.31,15.99-0.77c8.69-0.73,17.42-1.07,26.16-1.11c4.11-0.01,8.2,0.29,12.33,0.1
			c3.46-0.15,6.94,0.05,10.4,0.14c0.89,0.02,1.76,0.07,2.65-0.06c1.69-0.24,3.39-0.25,5.08-0.14c2.11,0.14,4.23,0.18,6.3-0.14
			c2.5-0.38,5-0.15,7.48-0.14c3.63,0.02,7.26,0.03,10.87-0.43c0.96-0.13,1.96-0.24,2.91-0.15c3.68,0.34,7.45-0.05,11.11,0.66
			c1.59,0.31,3.21-0.25,4.83-0.12c2.17,0.18,4.33,0.38,6.5,0.54c0.79,0.07,1.61,0.18,2.4,0.12c2.65-0.22,4.75,0.58,6.5,2.03
			c1.24,1.02,2.72,1.5,4.54,1.44c3.96-0.13,7.92-0.23,11.89-0.3c1.3-0.03,2.59,0.01,3.87,0.02c4.6,0.05,9.19,0.08,13.77,0.52
			c3.1,0.3,6.29,0.06,9.46-0.03c4.35-0.11,8.69,0.17,13.04,0.37c2.83,0.13,5.63,0.34,8.45-0.05c0.71-0.1,1.46,0,2.19,0.02
			c2.49,0.05,4.98,0.28,7.47-0.2c1.04-0.22,2.09-0.12,3.12,0.11c3.45,0.75,6.74,1.7,8.97,4.12c0.85,0.91,2.07,1.57,2.89,2.54
			c1.79,2.15,2.97,4.38,3.53,6.98c0.95,4.44,1.36,8.87,1.01,13.34c-0.33,4.08-1.53,8.09-3.68,11.88c-1.54,2.76-6.8,5.2-10.78,4.94
			c-5.68-0.38-11.31,0.03-16.96,0.4c-3.63,0.23-7.28,0.23-10.91,0.29c-1.7,0.02-3.03,0.2-3.99,1.64c-0.79,1.22-2.7,1.55-4.4,1.78
			c-2.57,0.37-5.14,0.08-7.73,0.03c-7.43-0.13-14.82-1.01-22.28-0.43c-2.26,0.17-4.48-0.37-6.77-0.19
			c-1.58,0.12-2.97,0.34-4.19,1.29c-1.7,1.29-4,1.04-6.01,0.99c-6.62-0.11-13.23-0.54-19.86-0.65c-5.24-0.06-10.52,0.06-15.78,0.3
			c-7.21,0.33-14.38-0.05-21.55-0.4c-3.63-0.18-7.29,0.14-10.9-0.27c-4.03-0.47-8.08-0.02-12.11-0.33
			c-2.59-0.19-5.14,0.49-7.73,0.56C155.56,171.9,154.28,172.07,152.97,171.92z M102.41,124.51c-1.3,0.22-2.34,0.15-3.39,0.13
			c-5.1-0.05-10.18,0.06-15.27,0.37c-0.91,0.07-1.8,0.19-2.55,0.58c-3.05,1.58-6.16,3.11-8.82,5.13c-2.64,1.98-5.35,3.93-7.86,6.03
			c-2.53,2.1-4.78,4.41-5.92,7.2c-0.89,2.19-2.55,3.99-4.18,5.83c-0.38,0.43-0.86,0.78-1.43,1.03c-4.36,1.92-8.03,4.59-11.95,6.96
			c-1.69,1.02-2.59,2.48-2.8,4.15c-0.29,2.5,1.93,4.14,5.06,3.77c2-0.23,3.98-0.48,6-0.14c1.09,0.18,2.24,0.14,3.37,0.15
			c3.88,0.05,7.77,0.01,11.64,0.15c3.22,0.11,6.43,0.62,9.64,0.59c4.01-0.05,8.03-0.52,12.07-0.72c1.1-0.06,1.73-0.36,2.27-1.14
			c1.04-1.53,2.18-3.03,4.66-3.39c0.49-0.07,0.92-0.49,1.32-0.81c0.61-0.46,1.3-0.74,2.1-0.92c1.58-0.34,3.13-0.7,4.69-1.05
			c3.64-0.85,7.4-0.96,11.01-0.41c2.78,0.42,5.39,0.35,8.15,0.01c4.26-0.54,7.67-1.99,10.77-4.42c3.54-2.78,7.59-4.91,13.1-4.71
			c3.11,0.12,6.19-0.77,9.03-1.98c4.74-2,9.59-3.73,15.01-4.2c3.52-0.3,6.94-0.22,10.27,0.77c3.62,1.07,7.27,0.95,10.85-0.23
			c3.6-1.21,7.22-2.29,11.18-2.44c2.89-0.13,5.72-0.46,8.57,0.47c1.73,0.57,3.56,1.21,5.54,1.3c0.43,0.01,0.92,0.25,1.28,0.48
			c1.59,1.09,3.42,1.91,5.28,2.66c0.58,0.24,1.08,0.53,1.43,0.99c1.14,1.5,2.87,2.55,4.66,3.54c6.23,3.37,13.12,5.89,19.34,9.29
			c0.97,0.53,1.78,1.05,2.32,1.85c1.04,1.59,2.12,3.14,3.09,4.73c0.45,0.73,1.04,1.09,2.04,1.1c1.86,0.03,3.72,0.22,5.57,0.16
			c5.74-0.17,11.49-0.15,17.2,0.14c3.85,0.19,7.57-0.17,11.3-0.73c0.82-0.13,2.08-0.38,2.01-1.15c-0.1-1.17-0.05-2.52-1.11-3.42
			c-1.51-1.23-3.08-2.42-5.14-3.1c-4.7-1.58-8.4-4.19-11.73-7.16c-3.4-3.04-6.74-6.07-11.33-8.14c-2.41-1.09-4.48-2.52-6.2-4.39
			c-2.28-2.48-2.7-5.42-3.94-8.13c-0.68-1.51-1.31-3.06-2.66-4.22c-2.22-1.9-4.62-3.67-8.33-3.69c-1.92-0.03-3.86-0.24-5.7-0.8
			c-0.44-0.14-0.97-0.29-1.41-0.22c-2.9,0.47-5.86-0.1-8.69,0.23c-4.55,0.54-9.07,0.27-13.55,0.12c-8.34-0.3-16.66,0.25-24.97,0.06
			c-6.94-0.15-13.89,0.18-20.86,0.21c-8.16,0.04-16.34,0.43-24.5,0.5c-6.78,0.06-13.51,0.84-20.31,0.65
			C113.82,123.95,107.99,124.35,102.41,124.51z M111.73,161.14c-4.15-0.07-7.63,0.29-11.16,0.87c-3,0.49-5.26,1.57-7.21,3.28
			c-1.34,1.2-1.12,1.81,0.78,2.35c1.24,0.34,2.55,0.25,3.82,0.39c5.12,0.55,10.24,1.04,15.45,0.93c11.23-0.23,22.46-0.4,33.68-0.18
			c6.29,0.11,12.6,0.03,18.9-0.03c4.68-0.05,9.39-0.37,14.07-0.29c8.4,0.14,16.78,0.43,25.16,0.76c9.2,0.35,18.45-0.17,27.63,0.49
			c3.06,0.22,6.11-0.01,9.16,0c1.71,0,3.34-0.29,4.7-1.28c1.5-1.1,1.59-1.59,0.29-2.86c-1.27-1.23-2.67-2.39-3.5-3.85
			c-0.37-0.61-0.94-1.06-1.66-1.34c-3.56-1.34-6.72-3.23-10.28-4.59c-2.51-0.95-4.82-2.22-6.96-3.69c-3.02-2.07-6.3-3.93-9.5-5.84
			c-1.1-0.66-2.33-1.19-3.68-1.4c-1.34-0.21-2.63-0.52-3.93-0.87c-3.36-0.91-6.77-1.09-10.22-0.21c-2.52,0.65-5.12,1.1-7.55,2.05
			c-1.4,0.55-3.13,0.59-4.55,1.26c-0.5,0.24-1.1,0.23-1.66,0.12c-1.93-0.42-3.95-0.56-5.9-0.98c-4.2-0.91-8.38-1.44-12.81-0.22
			c-3.69,1.03-7.38,1.93-10.5,3.9c-1.1,0.69-2.41,1.06-3.78,1.27c-1.59,0.24-3.2,0.41-4.78,0.69c-2.66,0.47-5.51,0.41-7.94,1.65
			c-2.25,1.15-4.64,2.14-6.76,3.43c-1.79,1.1-3.66,2.07-5.71,2.8c-2.06,0.73-4.28,1.49-6.47,1.39
			C116.31,161,113.72,161.43,111.73,161.14z M258.99,126.05c0,0.03,0,0.07,0,0.1c-0.57,0.01-1.14,0.02-1.7,0.03
			c-0.64,0.01-1.3-0.02-1.94,0.01c-2.24,0.11-2.43,0.31-1.87,1.96c0.5,1.41,1,2.83,1.63,4.2c1.38,2.96,3.11,5.74,6.74,7.41
			c1.24,0.59,2.52,1.13,3.78,1.69c1.04,0.47,2.11,0.94,2.78,1.79c1.86,2.38,4.1,4.51,6.51,6.57c2.86,2.45,6.07,4.52,9.72,6.18
			c3.55,1.62,7.23,3.18,9.82,5.75c1.5,1.49,3.27,1.84,5.45,1.82c2.34-0.02,4.68-0.25,7.01-0.22c5.59,0.07,11.13-0.24,16.63-0.93
			c0.88-0.09,1.78-0.14,2.66-0.06c2.34,0.2,4.09-0.58,5.35-2.07c0.74-0.91,1.35-1.9,2.08-2.82c2.41-3.11,3.3-6.54,3.3-10.08
			c0-4.18-1.1-8.23-2.43-12.24c-0.26-0.78-0.85-1.36-1.69-1.79c-1.18-0.58-2.35-1.36-2.7-2.37c-0.55-1.65-1.94-2.15-3.76-2.48
			c-0.78-0.14-1.48-0.51-2.25-0.7c-1.76-0.39-3.55-0.95-5.44-0.55c-1.04,0.23-2.05,0.22-3.1,0.21c-4.76-0.07-9.48-0.66-14.24-0.78
			c-3.95-0.1-7.92-0.06-11.87-0.06c-2.73,0-5.49,0.02-8.22-0.03C273.84,126.44,266.42,126.24,258.99,126.05z M71.09,125.89
			c-1.14-0.48-2.11-0.45-3.07-0.43c-1.78,0.06-3.56,0.15-5.34,0.17c-7.19,0.06-14.36,0.09-21.54,0.14
			c-2.98,0.02-5.95,0.41-8.93,0.02c-0.87-0.11-1.77-0.09-2.65-0.11c-4.63-0.12-9.2,0.5-13.81,0.73c-2.04,0.11-3.63,1.06-4.47,2.6
			c-0.86,1.59-1.55,3.24-2.47,4.79c-2.44,4.14-2.84,8.53-3.04,12.93c-0.21,5.26,1.86,10.07,5.47,14.41
			c1.11,1.36,2.24,2.77,4.83,2.75c4.5-0.04,8.98,0.05,13.46,0.2c1.47,0.05,1.93-0.42,2.4-1.38c1.4-2.82,3.28-5.46,5.96-7.65
			c2.36-1.95,4.88-3.76,7.67-5.35c2.04-1.14,4.03-2.39,5.92-3.69c2.13-1.45,3.57-3.25,4.22-5.5c0.6-2.11,1.62-4.15,3.49-5.86
			c2.31-2.09,5.02-3.8,7.8-5.46C68.53,128.29,70.22,127.5,71.09,125.89z"/>
		<g>
			<g>
				<g>
					<g>
						<path class="st5" d="M173.09,30.83c0,0.74-0.6,1.33-1.33,1.33l0,0c-0.73,0-1.34-0.59-1.34-1.33V2.58
							c0-0.74,0.61-1.34,1.34-1.34l0,0c0.73,0,1.33,0.59,1.33,1.34V30.83z"/>
						<path class="st5" d="M171.76,32.91c-1.15,0-2.08-0.93-2.08-2.08V2.58c0-1.14,0.93-2.08,2.08-2.08c1.14,0,2.06,0.94,2.06,2.08
							v28.25C173.82,31.98,172.9,32.91,171.76,32.91z M171.76,1.99c-0.33,0-0.59,0.26-0.59,0.59v28.25c0,0.33,0.26,0.58,0.59,0.58
							c0.31,0,0.58-0.25,0.58-0.58V2.58C172.34,2.25,172.08,1.99,171.76,1.99z"/>
					</g>
					<g>
						<path class="st5" d="M103.13,58.71c0.51,0.51,0.51,1.37,0,1.88l0,0c-0.52,0.52-1.37,0.52-1.88,0L81.26,40.6
							c-0.53-0.51-0.53-1.35,0-1.87l0,0c0.52-0.51,1.35-0.51,1.88,0L103.13,58.71z"/>
						<path class="st5" d="M102.19,61.73c-0.56,0-1.07-0.22-1.46-0.62l-20-19.98c-0.38-0.39-0.61-0.9-0.61-1.46
							c0-0.55,0.22-1.08,0.61-1.47c0.79-0.78,2.15-0.78,2.93,0l19.99,19.99c0.82,0.81,0.82,2.11,0,2.91
							C103.26,61.51,102.74,61.73,102.19,61.73z M82.2,39.08c-0.16,0-0.31,0.06-0.41,0.17c-0.11,0.11-0.18,0.25-0.18,0.42
							c0,0.15,0.06,0.3,0.18,0.41l19.99,19.99c0.21,0.22,0.61,0.22,0.82,0c0.23-0.23,0.23-0.61,0-0.83L82.62,39.25
							C82.51,39.14,82.36,39.08,82.2,39.08z"/>
					</g>
					<g>
						<path class="st5" d="M260.37,38.73c0.52-0.53,1.36-0.53,1.87,0l0,0c0.52,0.52,0.53,1.36,0,1.87l-19.99,19.99
							c-0.51,0.52-1.35,0.52-1.89,0l0,0c-0.51-0.52-0.51-1.36,0-1.88L260.37,38.73z"/>
						<path class="st5" d="M241.33,61.73c-0.56,0-1.08-0.22-1.46-0.62c-0.82-0.8-0.82-2.11,0-2.91l19.98-19.99
							c0.79-0.78,2.15-0.78,2.93,0c0.81,0.81,0.81,2.13,0,2.92l-19.99,19.98C242.39,61.51,241.88,61.73,241.33,61.73z M261.32,39.08
							c-0.15,0-0.31,0.06-0.42,0.17l-19.99,19.98c-0.24,0.23-0.24,0.6,0,0.83c0.22,0.22,0.61,0.22,0.83,0l19.99-19.99
							c0.23-0.23,0.23-0.6,0-0.83C261.61,39.14,261.47,39.08,261.32,39.08z"/>
					</g>
					<g>
						<path class="st5" d="M135.33,37.81c0.28,0.68-0.03,1.46-0.71,1.74l0,0c-0.67,0.28-1.46-0.05-1.74-0.73l-10.83-26.11
							c-0.27-0.68,0.05-1.46,0.72-1.73l0,0c0.69-0.29,1.46,0.04,1.75,0.71L135.33,37.81z"/>
						<path class="st5" d="M134.11,40.4c-0.84,0-1.59-0.5-1.91-1.28L121.37,13c-0.21-0.5-0.21-1.07,0-1.58
							c0.21-0.52,0.61-0.91,1.13-1.12c0.24-0.11,0.51-0.16,0.78-0.16c0.84,0,1.59,0.5,1.92,1.28l10.81,26.11
							c0.21,0.51,0.21,1.07,0,1.58c-0.21,0.51-0.62,0.91-1.13,1.12C134.65,40.35,134.38,40.4,134.11,40.4z M123.29,11.63
							c-0.07,0-0.15,0.01-0.22,0.04c-0.14,0.06-0.26,0.17-0.32,0.32c-0.06,0.14-0.06,0.3,0,0.45l10.83,26.12
							c0.11,0.29,0.47,0.43,0.75,0.31c0.14-0.06,0.26-0.17,0.32-0.31c0.06-0.15,0.06-0.31,0-0.46l-10.82-26.11
							C123.75,11.76,123.53,11.63,123.29,11.63z"/>
					</g>
					<g>
						<path class="st5" d="M288.25,79.53c0.69-0.28,1.46,0.03,1.74,0.72l0,0c0.29,0.69-0.05,1.45-0.72,1.74l-26.1,10.81
							c-0.68,0.29-1.46-0.03-1.75-0.71l0,0c-0.27-0.69,0.05-1.46,0.72-1.74L288.25,79.53z"/>
						<path class="st5" d="M262.66,93.65c-0.85,0-1.6-0.5-1.92-1.29c-0.43-1.05,0.06-2.26,1.11-2.7l26.11-10.82
							c0.27-0.11,0.53-0.16,0.8-0.16c0.85,0,1.59,0.5,1.92,1.29c0.43,1.04-0.07,2.26-1.12,2.7l-26.12,10.81
							C263.19,93.59,262.93,93.65,262.66,93.65z M288.77,80.17c-0.08,0-0.16,0.02-0.24,0.05l-26.11,10.82
							c-0.29,0.12-0.43,0.46-0.31,0.76c0.13,0.29,0.46,0.45,0.77,0.31L289,81.3c0.29-0.12,0.43-0.47,0.32-0.77
							C289.21,80.32,289.01,80.17,288.77,80.17z"/>
					</g>
					<g>
						<path class="st5" d="M81.37,90.34c0.68,0.28,1,1.06,0.72,1.74l0,0c-0.27,0.67-1.06,0.99-1.74,0.71L54.23,81.98
							c-0.67-0.29-0.99-1.05-0.72-1.74l0,0c0.29-0.69,1.07-1,1.75-0.72L81.37,90.34z"/>
						<path class="st5" d="M80.86,93.65c-0.27,0-0.54-0.06-0.8-0.17L53.95,82.67c-1.06-0.43-1.57-1.66-1.12-2.71
							c0.32-0.78,1.07-1.28,1.92-1.28c0.27,0,0.53,0.05,0.79,0.16l26.12,10.82c0.5,0.21,0.9,0.61,1.12,1.11
							c0.21,0.51,0.21,1.08,0,1.58C82.45,93.15,81.7,93.65,80.86,93.65z M54.75,80.17c-0.25,0-0.45,0.15-0.55,0.37
							c-0.13,0.3,0.02,0.65,0.32,0.77l26.12,10.81c0.29,0.13,0.64-0.02,0.76-0.31c0.06-0.13,0.06-0.3,0-0.45
							c-0.05-0.14-0.17-0.26-0.31-0.31L54.98,80.21C54.9,80.18,54.83,80.17,54.75,80.17z"/>
					</g>
					<g>
						<path class="st5" d="M219,11.71c0.27-0.69,1.05-1.01,1.73-0.72l0,0c0.68,0.27,0.99,1.05,0.71,1.73l-10.8,26.11
							c-0.28,0.68-1.07,1.01-1.74,0.71l0,0c-0.68-0.27-0.99-1.05-0.72-1.73L219,11.71z"/>
						<path class="st5" d="M209.4,40.4c-0.26,0-0.53-0.06-0.79-0.16c-1.05-0.43-1.56-1.65-1.12-2.7l10.82-26.11
							c0.32-0.78,1.07-1.28,1.91-1.28c0.27,0,0.54,0.05,0.8,0.16c0.51,0.21,0.9,0.61,1.11,1.12c0.22,0.51,0.21,1.07,0,1.59
							l-10.81,26.11C211.01,39.89,210.25,40.4,209.4,40.4z M220.22,11.63c-0.24,0-0.45,0.14-0.53,0.36L208.86,38.1
							c-0.13,0.3,0.03,0.64,0.31,0.77c0.3,0.13,0.66-0.02,0.77-0.31l10.82-26.12c0.06-0.15,0.06-0.31,0-0.45
							c-0.06-0.14-0.18-0.26-0.31-0.32C220.38,11.64,220.3,11.63,220.22,11.63z"/>
					</g>
				</g>
			</g>
			<path class="st5" d="M171.76,41.96c-44.9,0-81.29,36.39-81.29,81.28H94c0-42.87,34.87-77.75,77.76-77.75
				c42.87,0,77.75,34.88,77.75,77.75h3.52C253.03,78.35,216.64,41.96,171.76,41.96z"/>
		</g>
	</g>
	<g>
		<path class="st5" d="M74.76,214.48h-0.28c-0.16-1.24-0.7-2.33-1.63-3.26c-0.93-0.94-2.15-1.41-3.65-1.41
			c-0.99,0-1.87,0.24-2.64,0.7c-0.75,0.47-1.35,1.1-1.77,1.91c-0.41,0.8-0.62,1.71-0.62,2.75c0,0.81,0.12,1.52,0.37,2.14
			c0.25,0.62,0.62,1.17,1.1,1.65c0.49,0.48,1.07,0.92,1.72,1.33c0.67,0.41,1.56,0.94,2.69,1.56c1.88,1.04,3.34,2.06,4.39,3.09
			c1.05,1.04,1.56,2.44,1.56,4.23c0,1.09-0.27,2.15-0.83,3.16c-0.57,1.03-1.42,1.85-2.55,2.51c-1.15,0.66-2.56,0.97-4.24,0.97
			c-1.06,0-2-0.1-2.8-0.34c-0.82-0.22-1.65-0.54-2.49-0.96c-0.35-0.1-0.58-0.16-0.71-0.16c-0.24,0-0.4,0.09-0.47,0.27
			c-0.09,0.18-0.18,0.54-0.32,1.12h-0.3v-6.43h0.3c0.41,1.88,1.23,3.29,2.44,4.25c1.21,0.98,2.68,1.46,4.41,1.46
			c1.3,0,2.35-0.24,3.14-0.74c0.77-0.48,1.32-1.08,1.62-1.78c0.3-0.7,0.46-1.4,0.46-2.08c0-1.44-0.45-2.63-1.32-3.53
			c-0.88-0.92-2.21-1.85-4.01-2.79c-1.23-0.68-2.14-1.2-2.73-1.57c-0.59-0.38-1.2-0.86-1.81-1.45c-0.6-0.6-1.09-1.3-1.45-2.1
			c-0.36-0.81-0.55-1.73-0.55-2.77c0-1.22,0.32-2.37,0.96-3.47c0.64-1.11,1.55-1.99,2.73-2.67c1.18-0.67,2.5-0.99,3.99-0.99
			c1.11,0,2.28,0.19,3.46,0.57c0.2,0.09,0.45,0.13,0.75,0.13c0.39,0,0.66-0.25,0.79-0.76h0.28V214.48z"/>
		<path class="st5" d="M90.07,209.55v0.31c-0.76,0-1.42,0.21-1.95,0.64c-0.52,0.42-0.8,1.15-0.8,2.15v19.48
			c0,0.99,0.27,1.7,0.85,2.16c0.58,0.45,1.2,0.67,1.9,0.67v0.27h-8.14v-0.27c0.74,0,1.38-0.21,1.92-0.66
			c0.54-0.44,0.81-1.17,0.81-2.17v-19.48c0-1.07-0.26-1.81-0.81-2.2c-0.55-0.39-1.18-0.59-1.92-0.59v-0.31H90.07z"/>
		<path class="st5" d="M122.82,209.55v0.31c-0.66,0.08-1.17,0.2-1.54,0.37c-0.38,0.16-0.68,0.5-0.88,0.99
			c-0.21,0.49-0.32,1.21-0.32,2.13v22.53h-0.17l-19.72-22.01v15.81c0,1.32,0.05,2.28,0.15,2.93c0.11,0.63,0.26,1.09,0.46,1.38
			c0.43,0.6,1.18,0.93,2.25,0.97v0.27h-6.42v-0.27c0.72-0.03,1.28-0.2,1.68-0.47c0.4-0.26,0.68-0.76,0.85-1.48
			c0.17-0.74,0.25-1.83,0.25-3.29v-16.75l-0.85-0.96c-0.76-0.85-1.36-1.4-1.81-1.62c-0.46-0.23-1.03-0.4-1.7-0.51v-0.31h4.84
			l19.4,21.76v-16.58c0-1.24-0.04-2.17-0.13-2.78c-0.11-0.62-0.37-1.11-0.8-1.48c-0.41-0.37-1.09-0.59-2-0.61v-0.31H122.82z"/>
		<path class="st5" d="M151.98,215.31h-0.29c-0.21-1.27-0.81-2.32-1.76-3.2c-0.96-0.86-2.06-1.52-3.31-1.91
			c-1.24-0.39-2.41-0.6-3.5-0.6c-1.46,0-2.85,0.32-4.14,0.94c-1.31,0.62-2.42,1.49-3.36,2.63c-0.94,1.13-1.67,2.49-2.2,4.08
			c-0.51,1.59-0.78,3.31-0.78,5.17c0,1.8,0.27,3.47,0.76,5.02c0.5,1.53,1.25,2.87,2.21,4.01c0.97,1.12,2.09,1.97,3.37,2.55
			c1.28,0.59,2.69,0.87,4.25,0.87c1.31,0,2.74-0.26,4.29-0.78c1.56-0.52,2.97-1.42,4.22-2.64v0.99c-1.54,1.19-2.96,2.06-4.24,2.63
			c-1.28,0.56-2.88,0.84-4.8,0.84c-2.02,0-3.87-0.37-5.54-1.1c-1.67-0.74-3.06-1.73-4.22-3c-1.16-1.25-2.03-2.66-2.62-4.23
			c-0.59-1.56-0.89-3.18-0.89-4.85c0-2.49,0.62-4.82,1.85-6.96c1.23-2.14,2.9-3.84,5.01-5.08c2.11-1.26,4.39-1.88,6.84-1.88
			c1.54,0,3.15,0.23,4.88,0.68l1.8,0.5c0.36,0.07,0.65,0.11,0.91,0.11c0.45,0,0.74-0.07,0.9-0.2c0.15-0.14,0.26-0.38,0.35-0.72h0.27
			L151.98,215.31z"/>
		<path class="st5" d="M158.04,209.86v-0.31h15.31v4.05h-0.24c0-2.16-1.45-3.24-4.33-3.24h-5.36v11.66h4.71
			c0.94,0,1.76-0.15,2.49-0.45c0.74-0.31,1.16-1.01,1.25-2.07h0.26v5.81h-0.26c-0.1-0.66-0.29-1.17-0.59-1.53
			c-0.29-0.35-0.58-0.58-0.86-0.71c-0.28-0.11-0.55-0.17-0.75-0.17c-0.43-0.06-0.86-0.09-1.31-0.09h-4.94v9.11
			c0,0.69,0.13,1.28,0.4,1.78c0.25,0.5,0.86,0.75,1.81,0.75h3.82c0.92,0,1.68-0.14,2.28-0.4c0.58-0.27,1.06-0.63,1.4-1.11
			c0.34-0.48,0.62-1.06,0.86-1.72h0.25l-0.89,4.01h-15.31v-0.27h0.36c0.54,0,1.07-0.22,1.6-0.67c0.51-0.44,0.78-1.16,0.78-2.16
			v-19.35c0-0.79-0.19-1.47-0.53-2.05c-0.35-0.59-0.97-0.87-1.85-0.87H158.04z"/>
		<path class="st5" d="M212.22,235.22h-16.76c0.58-0.49,1.5-1.37,2.77-2.62c1.26-1.24,2.48-2.5,3.64-3.75
			c1.17-1.25,2.01-2.25,2.52-2.94c1.56-2.14,2.61-3.85,3.14-5.17c0.51-1.33,0.77-2.52,0.77-3.6c0-0.99-0.15-1.88-0.49-2.67
			c-0.34-0.8-0.77-1.44-1.31-1.93c-0.55-0.5-1.17-0.89-1.88-1.16c-0.71-0.26-1.44-0.39-2.18-0.39c-0.64,0-1.34,0.12-2.11,0.37
			c-0.75,0.25-1.47,0.7-2.18,1.35c-0.71,0.65-1.24,1.52-1.62,2.59h-0.53c0.18-0.95,0.59-1.91,1.2-2.89c0.6-0.99,1.46-1.85,2.6-2.54
			c1.12-0.72,2.46-1.07,4.02-1.07c1.52,0,2.84,0.33,3.94,1c1.1,0.68,1.94,1.55,2.5,2.62c0.57,1.07,0.85,2.21,0.85,3.42
			c0,1.44-0.35,2.9-1.06,4.41c-0.7,1.5-1.61,2.94-2.72,4.32c-1.12,1.37-2.3,2.66-3.53,3.84c-1.24,1.2-2.71,2.53-4.37,3.99l-0.58,0.5
			h11.33c0.71,0,1.29-0.15,1.72-0.44c0.42-0.28,0.82-0.76,1.17-1.4h0.28L212.22,235.22z"/>
		<path class="st5" d="M240.05,222.42c0,1.95-0.28,3.74-0.85,5.36c-0.56,1.64-1.33,3.06-2.33,4.28c-0.99,1.23-2.11,2.18-3.38,2.86
			c-1.28,0.65-2.57,0.99-3.89,0.99c-1.24,0-2.49-0.31-3.72-0.91c-1.24-0.63-2.37-1.5-3.39-2.66c-1.03-1.18-1.83-2.6-2.44-4.28
			c-0.6-1.68-0.9-3.58-0.9-5.65c0-2.92,0.53-5.41,1.59-7.47c1.07-2.06,2.41-3.61,4.03-4.61c1.61-1.03,3.23-1.53,4.83-1.53
			c1.72,0,3.38,0.54,5,1.66c1.61,1.09,2.91,2.68,3.94,4.76C239.53,217.29,240.05,219.69,240.05,222.42z M237.08,222.42
			c0-2.03-0.27-4.01-0.83-5.96c-0.57-1.94-1.4-3.51-2.54-4.74c-1.13-1.22-2.51-1.84-4.12-1.84c-1.59,0-2.97,0.69-4.1,2.05
			c-1.16,1.35-2.01,3.02-2.56,5c-0.56,1.96-0.83,3.8-0.83,5.5c0,1.96,0.27,3.9,0.84,5.81c0.57,1.91,1.42,3.48,2.55,4.73
			c1.13,1.23,2.5,1.86,4.1,1.86c1.32,0,2.55-0.57,3.71-1.7c1.14-1.14,2.06-2.68,2.75-4.59
			C236.74,226.62,237.08,224.58,237.08,222.42z"/>
		<path class="st5" d="M249.2,232.17v-17.21c0-1.14-0.02-1.84-0.09-2.09c-0.06-0.26-0.24-0.38-0.56-0.38
			c-0.21,0-0.95,0.21-2.21,0.65v-0.28c0.73-0.37,1.35-0.71,1.85-1.03c0.49-0.33,0.98-0.72,1.46-1.17c0.49-0.45,1.03-1.07,1.6-1.84
			h0.58v23.36c0,0.98,0.23,1.69,0.7,2.13c0.46,0.45,1.17,0.66,2.13,0.66v0.27h-8.32v-0.27C248.24,234.95,249.2,234.02,249.2,232.17z
			"/>
		<path class="st5" d="M281.78,222.42c0,1.95-0.28,3.74-0.85,5.36c-0.57,1.64-1.34,3.06-2.33,4.28c-0.99,1.23-2.13,2.18-3.39,2.86
			c-1.27,0.65-2.56,0.99-3.88,0.99c-1.25,0-2.5-0.31-3.72-0.91c-1.24-0.63-2.37-1.5-3.4-2.66c-1.01-1.18-1.83-2.6-2.43-4.28
			c-0.61-1.68-0.91-3.58-0.91-5.65c0-2.92,0.53-5.41,1.59-7.47c1.07-2.06,2.41-3.61,4.02-4.61c1.62-1.03,3.23-1.53,4.84-1.53
			c1.72,0,3.38,0.54,4.99,1.66c1.61,1.09,2.93,2.68,3.95,4.76C281.26,217.29,281.78,219.69,281.78,222.42z M278.81,222.42
			c0-2.03-0.27-4.01-0.83-5.96c-0.57-1.94-1.41-3.51-2.54-4.74c-1.13-1.22-2.5-1.84-4.12-1.84c-1.59,0-2.97,0.69-4.11,2.05
			c-1.15,1.35-2,3.02-2.55,5c-0.56,1.96-0.84,3.8-0.84,5.5c0,1.96,0.28,3.9,0.85,5.81c0.57,1.91,1.41,3.48,2.54,4.73
			c1.15,1.23,2.5,1.86,4.11,1.86c1.32,0,2.55-0.57,3.71-1.7c1.14-1.14,2.06-2.68,2.75-4.59
			C278.46,226.62,278.81,224.58,278.81,222.42z"/>
	</g>
</g>
</svg>
